{
    "asset" : {
        "generator" : "Khronos glTF Blender I/O v1.6.16",
        "version" : "2.0"
    },
    "scene" : 0,
    "scenes" : [
        {
            "name" : "Scene",
            "nodes" : [
                0,
                1
            ]
        }
    ],
    "nodes" : [
        {
            "mesh" : 0,
            "name" : "Room.001",
            "translation" : [
                -0.8629806041717529,
                0,
                -0.45461899042129517
            ]
        },
        {
            "mesh" : 1,
            "name" : "Wallpaper",
            "scale" : [
                100,
                100,
                100
            ]
        }
    ],
    "materials" : [
        {
            "doubleSided" : true,
            "name" : "Material.001",
            "pbrMetallicRoughness" : {
                "baseColorTexture" : {
                    "index" : 0
                },
                "metallicFactor" : 0,
                "roughnessFactor" : 0.5
            }
        },
        {
            "doubleSided" : true,
            "emissiveFactor" : [
                1,
                1,
                1
            ],
            "emissiveTexture" : {
                "index" : 1
            },
            "name" : "Wallpaper",
            "pbrMetallicRoughness" : {
                "baseColorTexture" : {
                    "index" : 2
                },
                "metallicFactor" : 0,
                "roughnessFactor" : 0.5
            }
        }
    ],
    "meshes" : [
        {
            "name" : "Plane.005",
            "primitives" : [
                {
                    "attributes" : {
                        "POSITION" : 0,
                        "TEXCOORD_0" : 1
                    },
                    "indices" : 2,
                    "material" : 0
                }
            ]
        },
        {
            "name" : "Cylinder",
            "primitives" : [
                {
                    "attributes" : {
                        "POSITION" : 3,
                        "TEXCOORD_0" : 4
                    },
                    "indices" : 5,
                    "material" : 1
                }
            ]
        }
    ],
    "textures" : [
        {
            "sampler" : 0,
            "source" : 0
        },
        {
            "sampler" : 0,
            "source" : 1
        },
        {
            "sampler" : 0,
            "source" : 1
        }
    ],
    "images" : [
        {
            "mimeType" : "image/png",
            "name" : "Image0001",
            "uri" : "Image0001.png"
        },
        {
            "mimeType" : "image/jpeg",
            "name" : "wallpaper",
            "uri" : "wallpaper.jpg"
        }
    ],
    "accessors" : [
        {
            "bufferView" : 0,
            "componentType" : 5126,
            "count" : 21989,
            "max" : [
                6.445363521575928,
                3.911956548690796,
                2.5250496864318848
            ],
            "min" : [
                -2.8007731437683105,
                -0.028762632980942726,
                -3.581526756286621
            ],
            "type" : "VEC3"
        },
        {
            "bufferView" : 1,
            "componentType" : 5126,
            "count" : 21989,
            "type" : "VEC2"
        },
        {
            "bufferView" : 2,
            "componentType" : 5123,
            "count" : 64323,
            "type" : "SCALAR"
        },
        {
            "bufferView" : 3,
            "componentType" : 5126,
            "count" : 38,
            "max" : [
                1,
                0.5,
                0.1950903832912445
            ],
            "min" : [
                -0.9999999403953552,
                -0.5,
                -1
            ],
            "type" : "VEC3"
        },
        {
            "bufferView" : 4,
            "componentType" : 5126,
            "count" : 38,
            "type" : "VEC2"
        },
        {
            "bufferView" : 5,
            "componentType" : 5123,
            "count" : 108,
            "type" : "SCALAR"
        }
    ],
    "bufferViews" : [
        {
            "buffer" : 0,
            "byteLength" : 263868,
            "byteOffset" : 0
        },
        {
            "buffer" : 0,
            "byteLength" : 175912,
            "byteOffset" : 263868
        },
        {
            "buffer" : 0,
            "byteLength" : 128646,
            "byteOffset" : 439780
        },
        {
            "buffer" : 0,
            "byteLength" : 456,
            "byteOffset" : 568428
        },
        {
            "buffer" : 0,
            "byteLength" : 304,
            "byteOffset" : 568884
        },
        {
            "buffer" : 0,
            "byteLength" : 216,
            "byteOffset" : 569188
        }
    ],
    "samplers" : [
        {
            "magFilter" : 9729,
            "minFilter" : 9987
        }
    ],
    "buffers" : [
        {
            "byteLength" : 569404,
            "uri" : "20211107_skybox.bin"
        }
    ]
}
